<?xml version="1.0" encoding="UTF-8"?>
<svg xmlns="http://www.w3.org/2000/svg" width="865.76" height="682.89" viewBox="0 0 865.76 682.89">
  <rect x="114.4" y="40.99" width="309.4" height="597.18" rx="21.41" fill="#62cafd"></rect>
  <g opacity="0.29">
    <rect x="121.05" y="47.41" width="296.1" height="582.45" rx="21.41"></rect>
  </g>
  <path d="M196.57,56.23h-40A23.87,23.87,0,0,0,132.71,80.1V595.74A22.29,22.29,0,0,0,155,618H382.66a22.29,22.29,0,0,0,22.3-22.3V75.37a19.14,19.14,0,0,0-19.15-19.14H344.73a2.15,2.15,0,0,0-1.78,1l-8.7,13.29a2.13,2.13,0,0,1-1.78,1H208.38a2.13,2.13,0,0,1-1.81-1l-8.19-13.2A2.14,2.14,0,0,0,196.57,56.23Z" fill="#fff"></path>
  <path d="M363.52,144.33h-193a.5.5,0,0,1,0-1h193a.5.5,0,0,1,0,1Z" fill="#7e1b30"></path>
  <polygon points="536.5 348.9 527.39 590.02 556.15 592.41 580.6 357.53 536.5 348.9" fill="#ff4e32"></polygon>
  <g opacity="0.2">
    <polygon points="580.6 357.53 571.01 355.62 564.3 463.47 559.51 469.7 565.74 472.58 557.11 476.41 567.18 485.52 580.6 357.53"></polygon>
  </g>
  <polygon points="634.77 589.06 664.01 583.79 636.21 367.6 588.27 359.45 634.77 589.06" fill="#ff4e32"></polygon>
  <path d="M639.24,588.06l2.8,15.62s.16,4.76,7.36,1.75a12.88,12.88,0,0,0,6.19-5.68,8.87,8.87,0,0,1,4.86-4.23l-.93-10.95Z" fill="#db9888"></path>
  <path d="M660.45,595.52c6.78-2.43,7.93,5.6,7.93,5.6s-1.17,9.32,21.68,6.76,21,11.42,21,11.42l-72.73,15.62c-5.88-9.48-3-19.88-1.68-23.44a2.89,2.89,0,0,0-.19-2.42c-5.56-9.83,4-13.07,4-13.07l1.64,7.69s-.06,5.45,9.43.75a6,6,0,0,0,1.38-.95,12.62,12.62,0,0,0,1.92-2.17,5.93,5.93,0,0,0,.36-.65A10.4,10.4,0,0,1,660.45,595.52Z" fill="#fffc32"></path>
  <path d="M638.31,634.92s-.71,5.67,2.05,7l72.65-16-2-6.6Z" fill="#7e1b30"></path>
  <path d="M549.87,591.86v12.91c-1.22,3.29-5.14,3.36-8.34,2.79a9,9,0,0,1-5.87-3.72c-2.09-3-4.57-3.27-4.57-3.27V590.51Z" fill="#db9888"></path>
  <path d="M560.1,634.29H484.46c1.35-14.86,15.33-16.29,18.25-16.42a9.59,9.59,0,0,0,1.19-.12c5.9-1,13.34-4.27,17-6a3.56,3.56,0,0,0,2-3.4c-.53-10.12,8.13-7.78,8.13-7.78s2.48.23,4.57,3.27a9,9,0,0,0,5.87,3.72c3.2.57,7.12.5,8.34-2.79v-8.23c9.4,1.52,6,14.09,6,14.09C564,619.19,560.1,634.29,560.1,634.29Z" fill="#fffc32"></path>
  <rect x="484.46" y="634.29" width="75.81" height="5.7" fill="#7e1b30"></rect>
  <rect x="221.89" y="54.65" width="99.14" height="8.92" rx="3.64" fill="#62cafd"></rect>
  <circle cx="167.68" cy="143.66" r="7.52" fill="#fffc32"></circle>
  <circle cx="267" cy="143.31" r="7.52" fill="#62cafd"></circle>
  <circle cx="366.32" cy="143.66" r="7.52" fill="#ff4e32"></circle>
  <g opacity="0.29">
    <circle cx="366.32" cy="143.66" r="3.32" fill="#fff"></circle>
  </g>
  <rect x="216.69" y="257.83" width="158.62" height="104.72" rx="5.63" transform="matrix(1, 0.09, -0.09, 1, 28.87, -25.18)" fill="#ff4e32"></rect>
  <polygon points="219.56 272.25 377.29 291.55 375.46 312.1 217.61 292.19 219.56 272.25" fill="#fffc32"></polygon>
  <polygon points="364.27 317.11 363.08 328.95 229.96 313.85 231.45 302.26 364.27 317.11" fill="#fff"></polygon>
  <path d="M331.52,338.42h0l-106-11a.5.5,0,0,1-.45-.55.49.49,0,0,1,.55-.44l106,11a.5.5,0,0,1-.05,1Z" fill="#fff"></path>
  <path d="M336,342.62h-.05L225,331.07a.5.5,0,0,1-.44-.55.48.48,0,0,1,.55-.44L336,341.62a.5.5,0,0,1,0,1Z" fill="#fff"></path>
  <path d="M322.6,345.5h-.05l-97.57-10a.5.5,0,0,1,.1-1l97.57,10a.5.5,0,0,1,0,1Z" fill="#fff"></path>
  <path d="M308.18,347.6h-.05l-83.67-7.87a.5.5,0,0,1-.45-.55.52.52,0,0,1,.55-.45l83.66,7.87a.5.5,0,0,1,0,1Z" fill="#fff"></path>
  <path d="M372.09,406.61H165.76a.5.5,0,0,1-.5-.5.5.5,0,0,1,.5-.5H372.09a.51.51,0,0,1,.5.5A.5.5,0,0,1,372.09,406.61Z" fill="#ff4e32"></path>
  <path d="M373.14,421.3H166.81a.5.5,0,0,1,0-1H373.14a.5.5,0,0,1,0,1Z" fill="#ff4e32"></path>
  <path d="M364.57,413.43H173.63a.5.5,0,0,1-.5-.5.5.5,0,0,1,.5-.5H364.57a.51.51,0,0,1,.5.5A.5.5,0,0,1,364.57,413.43Z" fill="#ff4e32"></path>
  <path d="M350.93,427.6H188.31a.51.51,0,0,1-.5-.5.5.5,0,0,1,.5-.5H350.93a.5.5,0,0,1,.5.5A.5.5,0,0,1,350.93,427.6Z" fill="#ff4e32"></path>
  <rect x="148.45" y="464.34" width="234.48" height="114.36" rx="11.02" fill="#fffc32"></rect>
  <g opacity="0.29">
    <path d="M382.93,475.36v6.29H148.45v-6.29a11,11,0,0,1,11-11H371.91A11,11,0,0,1,382.93,475.36Z" fill="#fff"></path>
  </g>
  <rect x="161.04" y="490.57" width="77.64" height="78.68" rx="3.73" fill="#ff4e32"></rect>
  <g opacity="0.29">
    <rect x="246.54" y="494.76" width="59.28" height="6.29" rx="2.57" fill="#fff"></rect>
  </g>
  <g opacity="0.29">
    <rect x="246.54" y="506.3" width="35.15" height="6.29" rx="2.57" fill="#fff"></rect>
  </g>
  <g opacity="0.29">
    <rect x="246.54" y="516.97" width="51.23" height="6.29" rx="2.57" fill="#fff"></rect>
  </g>
  <g opacity="0.29">
    <rect x="246.54" y="548.38" width="44.31" height="6.29" rx="2.57" fill="#fff"></rect>
  </g>
  <g opacity="0.29">
    <rect x="246.54" y="559.09" width="59.92" height="6.29" rx="2.57" fill="#fff"></rect>
  </g>
  <g opacity="0.29">
    <rect x="295.06" y="548" width="44.31" height="6.29" rx="2.57" fill="#fff"></rect>
  </g>
  <g opacity="0.29">
    <rect x="344.32" y="548.19" width="27.77" height="6.29" rx="2.57" fill="#fff"></rect>
  </g>
  <g opacity="0.29">
    <rect x="246.54" y="537.66" width="71.39" height="6.29" rx="2.57" fill="#fff"></rect>
  </g>
  <g opacity="0.29">
    <rect x="322.88" y="537.66" width="49.2" height="6.29" rx="2.57" fill="#fff"></rect>
  </g>
  <g opacity="0.29">
    <rect x="246.34" y="527.5" width="125.74" height="6.29" rx="2.57" fill="#fff"></rect>
  </g>
  <g opacity="0.29">
    <rect x="302.14" y="517.32" width="33.75" height="6.29" rx="2.57" fill="#fff"></rect>
  </g>
  <g opacity="0.29">
    <rect x="340.96" y="517.15" width="31.12" height="6.29" rx="2.57" fill="#fff"></rect>
  </g>
  <g opacity="0.29">
    <rect x="287.11" y="506.3" width="84.98" height="6.29" rx="2.57" fill="#fff"></rect>
  </g>
  <g opacity="0.29">
    <rect x="312.81" y="494.76" width="59.28" height="6.29" rx="2.57" fill="#fff"></rect>
  </g>
  <path d="M588.72,143.7s33-.15,49.16,14.88l42.58,43.54s-11.75,22.55-33.52,31l-19.46-20.81-1.16,92.53L525.08,254.51l-7.86-26.22L497,246.65l-27.8-43.81,32.26-40.91s10.31-15.25,47.91-17.59Z" fill="#fffc32"></path>
  <g opacity="0.2">
    <path d="M497,246.65l-7.43-11.72s18.71-18.45,19.23-58.58l8.4,51.94Z"></path>
  </g>
  <g opacity="0.2">
    <path d="M680.46,202.12s-12.89,24-33.52,31l-19.46-20.81L627,239.49l-8-9.65s2.53-20.7-3.67-33.57l24.83,18.85S653.69,225.92,680.46,202.12Z"></path>
  </g>
  <path d="M502.48,334.17l24.58-130.49a7.7,7.7,0,0,1,9-6l208.4,40.68a8.51,8.51,0,0,1,6.71,10l-25.54,128.6a8.52,8.52,0,0,1-10,6.71L509.24,344.2A8.52,8.52,0,0,1,502.48,334.17Z" fill="#62cafd"></path>
  <polygon points="522.8 288.14 520.52 301.58 565.42 310.45 568.28 296.44 522.8 288.14" fill="#fff"></polygon>
  <polygon points="572.86 297.87 570.57 311.31 615.48 320.18 618.34 306.16 572.86 297.87" fill="#fff"></polygon>
  <polygon points="623.77 308.45 621.48 321.89 666.39 330.76 669.25 316.74 623.77 308.45" fill="#fff"></polygon>
  <polygon points="673.82 317.89 671.54 331.33 716.44 340.2 719.3 326.18 673.82 317.89" fill="#fff"></polygon>
  <polygon points="618.91 331.33 618.05 336.48 713.87 355.07 714.73 350.21 618.91 331.33" fill="#fff"></polygon>
  <polygon points="639.5 345.92 638.64 351.07 711.87 364.51 712.72 359.65 639.5 345.92" fill="#fff"></polygon>
  <circle cx="717.01" cy="264.4" r="13.44" fill="#ff4e32"></circle>
  <polygon points="530.14 248.47 525.12 277.85 564 285.02 569.01 255.64 530.14 248.47" fill="#fffc32"></polygon>
  <path d="M567.46,261h-.09l-37.67-7a.5.5,0,0,1-.4-.58.5.5,0,0,1,.58-.4l37.67,7a.5.5,0,0,1-.09,1Z" fill="#fff"></path>
  <path d="M564,280.44h-.1l-37.13-7.1a.51.51,0,0,1-.4-.59.51.51,0,0,1,.59-.4l37.13,7.11a.5.5,0,0,1,.4.58A.51.51,0,0,1,564,280.44Z" fill="#fff"></path>
  <path d="M548.51,271.81a4.31,4.31,0,0,1-.94-.11l-20-4.4a.5.5,0,1,1,.22-1l20,4.41a3.42,3.42,0,0,0,1.47-6.69L529,259.44a.5.5,0,0,1-.37-.6.5.5,0,0,1,.6-.38l20.21,4.6a4.45,4.45,0,0,1,3.36,5.22,4.44,4.44,0,0,1-4.32,3.53Z" fill="#fff"></path>
  <path d="M565.74,271.29h-.11l-13.34-2.91a.5.5,0,1,1,.21-1l13.35,2.9a.5.5,0,0,1-.11,1Z" fill="#fff"></path>
  <g opacity="0.29">
    <path d="M524.55,226l5.19-20.9a4.87,4.87,0,0,1,5.35-3.65l21.32,2.76S534.3,202.61,524.55,226Z" fill="#fff"></path>
  </g>
  <path d="M470.76,205.21l-8.09,8.09a1.14,1.14,0,0,1-1.66,0l-64.5-71.56A13.45,13.45,0,0,0,386.9,137H371a1.56,1.56,0,0,0-1.56,1.56h0a1.56,1.56,0,0,0,1.56,1.57h10a.93.93,0,0,1,.89,1.24c-1.29,3.75-3.91,14.79,9.16,16.64a5.16,5.16,0,0,1,3.81,2.69l36,67.76s22.56,48.65,57.67,5Z" fill="#db9888"></path>
  <path d="M396.13,151.92a7.81,7.81,0,0,1-7.06-3.85,5.63,5.63,0,0,1-5,2.57,2,2,0,0,1-1.59-3.11l5.37-8.33.84.54-5.37,8.33a1,1,0,0,0,.8,1.57c1.91.1,3.45-.85,4.61-2.82l.55-.93.36,1c.06.2,1.75,4.75,8,3.92l.13,1A12.61,12.61,0,0,1,396.13,151.92Z" fill="#d38475"></path>
  <rect x="535.78" y="78.74" width="32.26" height="54.4" rx="13.18" fill="#db9888"></rect>
  <path d="M536,104.05S512.13,93.07,523,74.6c0,0,6,5.09,11.79.79,0,0-2.87-.16-3.35-4.3,0,0,6.05,2.87,15.45.16,0,0,16.08-5.89,20.06,5.73,0,0,7.57.51,11.54,4.25a6.5,6.5,0,0,1,1.95,5.48c-.67,5.92-3.11,24-8.39,32.31l-3.82-10.35-.48-10.19a12.66,12.66,0,0,0-2.87,7.8s-1.59-11.14-6.85-8.6c0,0-4.45,4.46-9.39-.47l-7.17-9.4S536,93.23,536,104.05Z" fill="#7e1b30"></path>
  <path d="M548.43,132.72l1,11.62s-8.28,1.27-4.94,9.08c0,0,6.58,12,30,3.51a24.62,24.62,0,0,0,11.95-9,22.48,22.48,0,0,0,2.29-4.21l-10.83-.48L572,119l-3.82-10.35Z" fill="#db9888"></path>
  <path d="M548.43,132.72l.8,8.28s13.85-1.12,15.92-15.13C565.15,125.87,560.37,134.63,548.43,132.72Z" fill="#d38475"></path>
  <ellipse cx="568.04" cy="103.53" rx="4.98" ry="7.34" fill="#db9888"></ellipse>
  <path d="M683.09,271.22l-60.24,30.36L621,316.06c0,.17-.06.33-.09.47-1.11,5-5.66.91-5.66.91-9.43,2.75-11-2.54-11-2.54-4.38,1-6.63.34-7.66-1.08-2.2-3.08,1.23-9.49,1.23-9.49,2.53-5.06.93-4.84.93-4.84L594.8,303c-3.32,2.74-5.46,2.58-6.59,2.09a.77.77,0,0,1-.14-1.29c2.31-1.95,6-7.47,6-7.47,3.22-6.43,19.32-6.9,19.32-6.9,12.18-12.41,44.37-40.23,44.37-40.23l-10.87-16c16.05-5.65,28.58-23.53,28.58-23.53l15.4,21.6C707.24,259.73,683.09,271.22,683.09,271.22Z" fill="#db9888"></path>
  <path d="M646.94,233.15s23.74-3.31,34.54-15l-6-8.51A66,66,0,0,1,646.94,233.15Z" fill="#d38475"></path>
  <path d="M654.81,244.55s12.65-.69,17.94,3a138.12,138.12,0,0,0-25.3,10.58l10.35-9Z" fill="#d38475"></path>
  <path d="M620.93,316.53c-1.11,5-5.66.91-5.66.91-9.43,2.75-11-2.54-11-2.54-4.38,1-6.63.34-7.66-1.08-.06-.21-.08-.32-.08-.32s3.88,2.69,9-1.3c0,0,4.41,5.18,10,1.41a7.59,7.59,0,0,0,5.38,2.9Z" fill="#d38475"></path>
  <path d="M627.48,212.34l19.46,20.81s22.67-8.82,33.52-31C680.46,202.12,655.91,227.89,627.48,212.34Z" fill="#fffc32"></path>
  <g opacity="0.2">
    <path d="M627.48,212.34l19.46,20.81s22.67-8.82,33.52-31C680.46,202.12,655.91,227.89,627.48,212.34Z"></path>
  </g>
  <g opacity="0.29">
    <path d="M514.91,342.52l200.45,37.69a6.26,6.26,0,0,0,7.33-4.87l15.74-75.4S683.52,358.69,514.91,342.52Z" fill="#fff"></path>
  </g>
  <rect x="159.28" y="206.52" width="170.26" height="110.77" rx="4.74" transform="translate(-49.07 56.48) rotate(-11.99)" fill="#62cafd"></rect>
  <circle cx="299.03" cy="217.37" r="10.23" fill="#ff4e32"></circle>
  <polygon points="164.71 260.79 169.93 282.84 199.05 276.61 193.66 254.39 164.71 260.79" fill="#fffc32"></polygon>
  <path d="M166.3,265a.51.51,0,0,1-.49-.39.5.5,0,0,1,.38-.6l27.54-6.22a.5.5,0,0,1,.22,1L166.41,265Z" fill="#fff"></path>
  <path d="M169.56,279.29a.5.5,0,0,1-.12-1l27.81-6.55a.5.5,0,1,1,.23,1l-27.81,6.56Z" fill="#fff"></path>
  <path d="M168.67,275.44a.5.5,0,0,1-.13-1l14.76-4a2.61,2.61,0,0,0,1.89-3.15,2.56,2.56,0,0,0-1.2-1.61,2.6,2.6,0,0,0-2-.27l-14.58,3.65a.51.51,0,0,1-.61-.37.51.51,0,0,1,.37-.6l14.57-3.65a3.6,3.6,0,1,1,1.81,7l-14.75,4Z" fill="#fff"></path>
  <path d="M181.11,265.47a.49.49,0,0,1-.49-.4l-1.38-6.81a.5.5,0,0,1,.39-.59.51.51,0,0,1,.59.39l1.38,6.81a.5.5,0,0,1-.39.59Z" fill="#fff"></path>
  <path d="M183.48,279.78a.49.49,0,0,1-.49-.41l-1.48-7.89a.48.48,0,0,1,.39-.58.5.5,0,0,1,.59.4l1.48,7.89a.5.5,0,0,1-.4.58Z" fill="#fff"></path>
  <path d="M185.68,267.72a.5.5,0,0,1-.49-.39.5.5,0,0,1,.37-.6l9.84-2.34a.5.5,0,1,1,.23,1l-9.84,2.34Z" fill="#fff"></path>
  <polygon points="170.66 289.67 204.93 283 207.31 294.19 173.27 301.09 170.66 289.67" fill="#fff"></polygon>
  <polygon points="208.5 282.05 242.78 275.39 245.16 286.57 211.12 293.48 208.5 282.05" fill="#fff"></polygon>
  <polygon points="246.82 274.44 281.1 267.77 283.48 278.96 249.44 285.86 246.82 274.44" fill="#fff"></polygon>
  <polygon points="284.91 266.82 319.18 260.15 321.56 271.34 287.52 278.24 284.91 266.82" fill="#fff"></polygon>
  <polygon points="251 292.27 323.47 277.53 324.42 281.34 251.82 295.86 251 292.27" fill="#fff"></polygon>
  <polygon points="269.67 296.92 325.3 285.66 326.25 289.47 270.5 300.5 269.67 296.92" fill="#fff"></polygon>
  <g opacity="0.29">
    <path d="M323.13,236.15,333.7,289a6.94,6.94,0,0,1-5.23,8.12L198.28,325.68S299,284.06,323.13,236.15Z" fill="#fff"></path>
  </g>
  <g opacity="0.29">
    <path d="M156.32,244.55l-2-11.92a4.84,4.84,0,0,1,3.51-5.5l9.9-2.69A28.39,28.39,0,0,0,156.32,244.55Z" fill="#fff"></path>
  </g>
  <circle cx="337.23" cy="473.67" r="3.24" fill="#fffc32"></circle>
  <circle cx="351.3" cy="473.67" r="3.24" fill="#fffc32"></circle>
  <circle cx="366.01" cy="473.51" r="3.24" fill="#fffc32"></circle>
  <path d="M536.14,105.13a.5.5,0,0,1-.23-.94,4.47,4.47,0,0,1,4.59,0,.5.5,0,1,1-.58.82,3.45,3.45,0,0,0-3.54,0A.53.53,0,0,1,536.14,105.13Z" fill="#7e1b30"></path>
  <path d="M544.65,102.91a.5.5,0,0,1-.24-.94,4.43,4.43,0,0,1,4.59,0,.49.49,0,0,1,.12.69.5.5,0,0,1-.7.12,3.44,3.44,0,0,0-3.54,0A.5.5,0,0,1,544.65,102.91Z" fill="#7e1b30"></path>
  <ellipse cx="547.29" cy="108.27" rx="0.92" ry="1.54" fill="#7e1b30"></ellipse>
  <ellipse cx="539.04" cy="110.24" rx="0.92" ry="1.54" fill="#7e1b30"></ellipse>
  <path d="M543.17,117.08a.5.5,0,0,1-.35-.14.46.46,0,0,1-.15-.37l.12-8.25a.5.5,0,0,1,.5-.49h0a.5.5,0,0,1,.49.51l-.12,7.72L546,116a.52.52,0,0,1,.52.48.5.5,0,0,1-.48.52l-2.83.12Z" fill="#d38475"></path>
  <path d="M542.92,121.39s.05.11.15.29a4.38,4.38,0,0,0,7.66-.27,12.27,12.27,0,0,0,1.31-4.33S546.49,120.89,542.92,121.39Z" fill="#fff"></path>
</svg>
